<svg width="50" height="56" viewBox="0 0 50 56" fill="none" xmlns="http://www.w3.org/2000/svg">
<ellipse rx="6.33809" ry="6.18193" transform="matrix(-1 0 0 1 25.1424 6.18193)" fill="#C4D700"/>
<ellipse rx="1.58452" ry="1.54548" transform="matrix(-1 0 0 1 47.4325 53.4737)" fill="#C4D700"/>
<ellipse rx="1.58452" ry="1.54548" transform="matrix(-1 0 0 1 42.7846 46.0554)" fill="#FFEE7D"/>
<ellipse rx="3.16905" ry="3.09097" transform="matrix(-1 0 0 1 41.2001 36.0612)" fill="#F49C2D"/>
<ellipse rx="1.58452" ry="1.54548" transform="matrix(-1 0 0 1 33.9113 40.0795)" fill="#FFEE7D"/>
<ellipse rx="5.28174" ry="5.15161" transform="matrix(-1 0 0 1 5.28175 21.4307)" fill="#FFEE7D"/>
<ellipse rx="1.58452" ry="1.54548" transform="matrix(-1 0 0 1 15.1061 17.8245)" fill="#FFEE7D"/>
<ellipse rx="1.58452" ry="1.54548" transform="matrix(-1 0 0 1 35.6014 29.5703)" fill="#C4D700"/>
<ellipse rx="2.1127" ry="2.06064" transform="matrix(-1 0 0 1 36.1296 49.6615)" fill="#F49C2D"/>
<ellipse rx="3.16905" ry="3.09097" transform="matrix(-1 0 0 1 23.0294 39.7704)" fill="#C4D700"/>
<ellipse rx="3.69722" ry="3.60613" transform="matrix(-1 0 0 1 36.6578 22.9762)" fill="#FFEE7D"/>
<ellipse rx="1.58452" ry="1.54548" transform="matrix(-1 0 0 1 12.1482 33.8976)" fill="#F49C2D"/>
<ellipse rx="3.16905" ry="3.09097" transform="matrix(-1 0 0 1 21.7617 26.1702)" fill="#F49C2D"/>
<ellipse rx="1.58452" ry="1.54548" transform="matrix(-1 0 0 1 28.2058 17.8245)" fill="#C4D700"/>
</svg>
